# xmcd
#
# Track frame offsets:
#	150
#	14515
#	29957
#	51422
#	65835
#	79290
#	96870
#	112575
#	128190
#	141815
#	155732
#	173535
#	188455
#	205397
#
# Disc length: 2855 seconds
#
# Revision: 0
# Processed by: cddbd v1.4PL0 Copyright (c) Steve Scherf et al.
# Submitted via: dBpowerAMP V4.0
#
DISCID=c70b250e
DTITLE=3rd Faze - 3rd Faze
DYEAR=2001
DGENRE=R&B
TTITLE0=Shy
TTITLE1=The World of Make Believe
TTITLE2=If Ever You Feel the Need
TTITLE3=Over You
TTITLE4=Go Slow
TTITLE5=Chameleon
TTITLE6=Not Like Her
TTITLE7=Throw the Roses
TTITLE8=They Don't Know You
TTITLE9=How Can You Tell
TTITLE10=Dance
TTITLE11=Boy You Gotta Go
TTITLE12=Believe
TTITLE13=Go For It (Bonus Track)
EXTD=
EXTT0=
EXTT1=
EXTT2=
EXTT3=
EXTT4=
EXTT5=
EXTT6=
EXTT7=
EXTT8=
EXTT9=
EXTT10=
EXTT11=
EXTT12=
EXTT13=
PLAYORDER=
